<svg version="1.1" xmlns="http://www.w3.org/2000/svg" viewBox="0 0 2490.967741935484 1112.291219544017" width="2490.967741935484" height="1112.291219544017">
  <!-- svg-source:excalidraw -->
  
  <defs>
    <style>
      @font-face {
        font-family: "Virgil";
        src: url("https://excalidraw.com/FG_Virgil.woff2");
      }
      @font-face {
        font-family: "Cascadia";
        src: url("https://excalidraw.com/Cascadia.woff2");
      }
    </style>
  </defs>
  <rect x="0" y="0" width="2490.967741935484" height="1112.291219544017" fill="#ffffff"></rect><g transform="translate(10 66.80734857627499) rotate(0 1235.483870967742 517.741935483871)"><path d="M1.2426873847842217 -1.437249080836773 C716.6868149583619 4.704880085299092, 1437.6941917384825 3.9998581794000447, 2472.2751219605725 1.3411910608410835 M-0.362996169179678 -0.5880824722349643 C962.5751280517349 16.244337282906617, 1925.0373039389092 16.13853562904462, 2470.6451216904147 -0.40184973850846295 M2471.572072110109 0.42185931950807576 C2463.865891249454 403.0822685896509, 2464.4369890525695 805.2533788485632, 2471.1285784100814 1036.0213362614475 M2471.427307626389 -0.3045343317091465 C2476.5979121554283 413.0271993452143, 2475.3796419251353 827.2695859457217, 2470.4817498651964 1035.3606461214683 M2471.5416540478986 1036.3954493443332 C1539.8017230950777 1056.2765945937365, 608.8366624425494 1055.468371393892, 0.05851136893033981 1034.2861606041752 M2470.8850722757797 1035.3367273974081 C1772.0825467174573 1021.8639461717058, 1073.539668528519 1021.503617235129, -0.2303476296365261 1034.7734407829903 M-1.0759593799710274 1037.0486403862797 C0.7823833542245054 772.3692332615656, 0.2681570606606627 510.50296853187103, 0.3526996299624443 1.163837917149067 M0.747822193056345 1036.0089519905707 C-0.36904455408934633 697.413777553158, -0.8568841813552766 359.8741290862042, 0.5044937409460545 0.417369206994772" stroke="#862e9c" stroke-width="4" fill="none"></path></g><g transform="translate(16.960729312762624 10) rotate(0 126.5 21.5)"><text x="0" y="35" font-family="Cascadia, Segoe UI Emoji" font-size="36px" fill="#862e9c" text-anchor="start" style="white-space: pre;" direction="ltr">Architektura</text></g><g transform="translate(49.17812061711038 437.8913043478267) rotate(0 192.39130434782612 98.91304347826076)"><path d="M0.8325941175036439 1.924568801008591 C132.1251547966263 -2.014832265275067, 268.22820120976405 -0.3189744148909458, 387.04205691465756 -0.26582387114279776 M0.06969349459379862 -0.6302515062246731 C79.2892794253024 0.057903828152421004, 158.59349772803037 -0.9628335499648654, 384.48700374852166 -0.1003069412038684 M386.40728613394117 0.8046236447989941 C387.57042879850167 69.86803700876132, 385.46717579156655 130.88510561564357, 383.4562917615733 199.1813620324042 M385.815959720265 0.8873090837150812 C384.04446322904175 40.82279263149295, 384.9454254029805 85.12278766913899, 385.21544048036253 199.04916670683588 M385.583491925435 198.70644536577598 C284.35650341692565 198.4209713415631, 179.38767673310304 195.7352761946003, -0.060880986680164596 199.98841091829567 M385.38837319534815 197.32178255913033 C269.5577714980725 196.96790380530743, 156.67623451284044 195.57502787786876, -0.8935682082701691 198.30544154717882 M-1.2837714962661266 196.89219069432284 C1.9133158729857058 140.3569950891819, 1.778622131187305 88.62481996133589, -1.7744005732238293 3.9099299125373363 M0.07478519342839718 199.78215893868173 C5.256624919605316 136.82399405875105, 4.845487636756958 78.34667367650107, -0.4268761668354273 -1.7394493129104376" stroke="#5f3dc4" stroke-width="4" fill="none"></path></g><g transform="translate(175.35203366058852 513.8695652173926) rotate(0 64.5 22)"><text x="64.5" y="35" font-family="Cascadia, Segoe UI Emoji" font-size="36.61622731941115px" fill="#5f3dc4" text-anchor="middle" style="white-space: pre;" direction="ltr">CLIENT</text></g><g><g transform="translate(436.13464235624093 533.5434782608697) rotate(0 119.13030169041417 -2.128114065527825)"><path d="M1.9763547431677582 -0.9801925491541623 C41.99100214872993 -0.9381772072364886, 198.81158572357083 -2.826696927472949, 238.65589456203503 -2.5309873055666685 M-0.39529118120670326 -3.9806080287694936 C39.33294875921545 -3.4333424609899525, 196.04898330041453 -0.22159843862056702, 236.160278050407 -0.2756201022863385" stroke="#5f3dc4" stroke-width="4" fill="none"></path></g><g transform="translate(436.13464235624093 533.5434782608697) rotate(0 119.13030169041417 -2.128114065527825)"><path d="M206.45823557647154 8.996840255960038 C211.48372658719887 9.530102703398889, 223.27690878156068 1.9233643877052327, 238.30966640467864 0.8496289445459846 M209.05428086007223 10.698724944769552 C214.08812400045278 9.155708392357969, 220.93695332826468 4.735143818240487, 234.5392062442295 0.9672239037603143" stroke="#5f3dc4" stroke-width="4" fill="none"></path></g><g transform="translate(436.13464235624093 533.5434782608697) rotate(0 119.13030169041417 -2.128114065527825)"><path d="M206.68361359470222 -11.52313067810168 C211.24509825483406 -5.880137848825012, 222.98219343798843 -8.380327403504678, 238.30966640467864 0.8496289445459846 M209.2796588783029 -9.821245989292166 C214.52185467040022 -6.798397066135722, 221.32055575947538 -6.654940668161905, 234.5392062442295 0.9672239037603143" stroke="#5f3dc4" stroke-width="4" fill="none"></path></g></g><g transform="translate(478.15638148667574 471.86956521739125) rotate(0 64.5 24)"><text x="64.5" y="19" font-family="Cascadia, Segoe UI Emoji" font-size="20px" fill="#5f3dc4" text-anchor="middle" style="white-space: pre;" direction="ltr">http dotaz </text><text x="64.5" y="43" font-family="Cascadia, Segoe UI Emoji" font-size="20px" fill="#5f3dc4" text-anchor="middle" style="white-space: pre;" direction="ltr">(GET, POST)</text></g><g transform="translate(676.3643758751261 436.4972826086971) rotate(0 192.39130434782612 98.91304347826076)"><path d="M-0.10508998294460156 -0.7280825449498174 C93.00097714391497 1.1244241915394972, 187.74525736181874 1.0772018148154512, 383.5833002909599 -1.0694122941458182 M0.8392935109826346 0.9068568166747044 C97.01051330735476 3.489786990412306, 195.8138885085938 2.9818582178906494, 384.26201108425056 0.8975219425381062 M386.1879607107005 -2.2528816051781178 C390.2084813073845 74.97680136824586, 390.04002368008804 146.38413860802726, 385.14682122724867 194.72919964741732 M382.9642872496954 -0.19451778195798397 C380.3357835361411 48.384695103999334, 380.91586291283863 99.60802153060607, 386.3796352430693 195.89455732468332 M386.16185357045356 199.1025285787729 C288.03253506013874 195.35987037405445, 185.02865613303442 197.9343896290383, -0.4512384874696099 196.16043152836906 M385.62523018511536 198.35968239545178 C235.6451000084395 201.54954253920243, 88.77283244655963 201.17640003547461, 1.0677353212536644 198.47490406173208 M-3.399878840893507 194.27455818604494 C-1.3535056086257127 121.8067895358265, 2.1358050135895583 45.79572788634047, -3.163026075810194 -2.4317054338753223 M-0.21552024222910404 198.4484743154403 C2.321771056148342 124.14282708206079, 1.942412108871273 49.19528264714319, 1.4816690292209387 1.6457095239311457" stroke="#5f3dc4" stroke-width="4" fill="none"></path></g><g transform="translate(750.7200423042066 491.6711956521747) rotate(0 118 44)"><text x="118" y="35" font-family="Cascadia, Segoe UI Emoji" font-size="36.61622731941115px" fill="#5f3dc4" text-anchor="middle" style="white-space: pre;" direction="ltr">Route</text><text x="118" y="79" font-family="Cascadia, Segoe UI Emoji" font-size="36.61622731941115px" fill="#5f3dc4" text-anchor="middle" style="white-space: pre;" direction="ltr"> Controller</text></g><g transform="translate(683.8961484503769 795.099289297659) rotate(0 192.39130434782618 98.91304347826076)"><path d="M-0.07951536649315867 -2.266562078219661 C138.52351200994218 -0.9155813429859263, 281.2364490600614 0.42211449383821054, 383.59410037379894 -0.6795596594910507 M-0.9795322652259228 -0.5073771553162677 C148.4367850722373 4.426451353041215, 298.08254302281773 3.2756099098282245, 384.42352021831056 -0.43386541403238965 M386.17809234964466 1.391461867839098 C383.01021006691235 75.1417291727645, 382.1304785310008 150.95646867617623, 388.4164612184725 199.52121601205135 M383.15630902568614 0.8886310663074255 C385.299716080539 67.68294827214879, 386.70755269657826 132.49968636116887, 382.9869355730227 198.8887845068034 M384.269365125037 196.1555896130719 C241.3452977738764 196.43164628794216, 98.2888694802524 193.6518290304544, 1.4288285141465702 196.2260314125876 M383.77361973843904 198.53067905831554 C265.20833664673006 198.05369334699563, 144.356080349004 198.16284958037028, -1.122039276139497 197.1511877311966 M-3.244151670485735 199.38080093961025 C0.4639500409931583 147.39584493025637, 3.6738867790073795 88.0517771350138, -1.6664654798805714 -1.9551793150603771 M0.7379306051880121 198.47432998705472 C-3.347352179536674 151.2953498342842, -3.8996939387415384 102.02831693187991, 1.8403657767921686 0.2964115347713232" stroke="#5f3dc4" stroke-width="4" fill="none"></path></g><g transform="translate(1450.6425711356787 277.3942845217805) rotate(0 248.16053511705684 98.91304347826076)"><path d="M1.102957793545065 0.7449981937677896 C128.81806992565527 3.0061130792939994, 255.90099177113856 3.005296213798883, 495.33594192698894 -1.1709493933528476 M-0.2593687759574964 -0.16203483962798798 C193.8151259622002 0.11590894625203502, 388.8346299550858 -0.3597213352424361, 495.8464179970219 -0.06788815060003868 M500.1105050433514 -0.19232328608632088 C489.99541874989603 75.11164299694246, 490.4542804585371 158.10498229632867, 499.32632356771205 200.40975308369661 M496.766487420359 0.7329972479492426 C496.8095330062936 40.02390771233675, 497.02224177752237 79.98432234237367, 496.8922235973266 195.9700826084968 M495.8028736196058 197.62538028921088 C326.02150625328596 197.91478836634383, 157.7391013505238 198.54808102203268, 0.6352719222962098 196.92969721385487 M495.79983316227737 197.04323903606894 C323.6119176058462 195.40343024606958, 151.8324311180531 194.8663953018823, 0.27933078278658524 198.3855062457716 M2.648510593920946 196.08096611451174 C5.093549586063165 131.03713882775236, 1.7023670442159369 63.71173729172537, -3.381116133183241 -1.8568648882210255 M-0.7468255553394556 199.80970516566003 C-3.3297901418788896 142.1529321736533, -3.5101134446247086 86.00465260510849, -0.6400293502956629 1.1432318780571222" stroke="#364fc7" stroke-width="4" fill="none"></path></g><g transform="translate(1452.5656480587559 573.5481306756267) rotate(0 245.27591973244148 98.91304347826076)"><path d="M0.7861548501397551 -1.6408104958466174 C119.45019803024749 1.1835332218762913, 239.57948827867887 1.5417474544198346, 491.25447307597034 0.4854695882872001 M0.34481934780259255 -0.8030379534912059 C135.2076213830289 -2.2587593546669966, 270.5507348504445 -2.5448890484406075, 490.71062505394355 -0.44048744613428475 M489.82682014776265 2.5925432853400707 C487.8644012445709 62.757781154476035, 491.174711012294 126.97201118059442, 490.7297953493694 195.9345870013144 M491.49782516023015 -0.32449989579617977 C489.35122446842604 55.608159269044194, 491.02901731558256 112.75512240422148, 489.639907314981 197.94927903774942 M492.16023071008743 197.02242142518054 C378.6523688039769 196.615376155526, 265.32952181847116 195.88752741703533, 0.14707597387041152 197.47854847790066 M489.7685203860022 198.34592349476642 C317.5216202982612 196.73039724031335, 142.83180953419023 195.95162014775173, 0.20542855943299282 197.55365976123593 M-0.4233928732573986 200.22870194863344 C-3.296407471329941 133.8952903594901, -7.0446380478451385 67.21804866170422, -3.891351204365492 0.5860140733420849 M0.5931365694850683 197.12143257025446 C5.019065796721561 140.02839253142298, 2.8416683667784763 86.07458322074092, -0.9201958570629358 1.2257837150245905" stroke="#364fc7" stroke-width="4" fill="none"></path></g><g transform="translate(1589.8800293296586 361.0380972308103) rotate(0 115 17)"><text x="115" y="27" font-family="Cascadia, Segoe UI Emoji" font-size="28px" fill="#364fc7" text-anchor="middle" style="white-space: pre;" direction="ltr">ENTITY MANAGER</text></g><g transform="translate(1481.187721637351 639.307328000041) rotate(0 221.5 34)"><text x="221.5" y="27" font-family="Cascadia, Segoe UI Emoji" font-size="28px" fill="#364fc7" text-anchor="middle" style="white-space: pre;" direction="ltr">Doctrine ORM</text><text x="221.5" y="61" font-family="Cascadia, Segoe UI Emoji" font-size="28px" fill="#364fc7" text-anchor="middle" style="white-space: pre;" direction="ltr">(Object Relational Mapping)</text></g><g><g transform="translate(1058.4184908681202 528.2304049231177) rotate(0 193.74184957552131 -82.86375539685366)"><path d="M-0.797554774209857 1.2334941159933805 C64.3273018485413 -26.84067419224341, 323.99209511235654 -139.45119041717842, 388.28125392525254 -166.9610049097007 M3.9649627062678334 -0.5652057453989983 C69.19290365560411 -28.362512129305397, 324.4158031550825 -135.84025999426143, 387.56024465373514 -163.75955032592174" stroke="#364fc7" stroke-width="4" fill="none"></path></g><g transform="translate(1058.4184908681202 528.2304049231177) rotate(0 193.74184957552131 -82.86375539685366)"><path d="M367.4789010123055 -139.20382593939928 C369.0005848863217 -148.2129580972826, 378.1078166416274 -149.2406516914035, 386.17807494885085 -162.47337479551788 M365.9435379360508 -144.71487983125178 C369.5487891045663 -147.1139266811895, 376.05285135549946 -150.7884584050272, 387.1627598352617 -162.74922285822686" stroke="#364fc7" stroke-width="4" fill="none"></path></g><g transform="translate(1058.4184908681202 528.2304049231177) rotate(0 193.74184957552131 -82.86375539685366)"><path d="M359.3712639895886 -158.0555161631885 C362.81047032440813 -163.02451846459388, 373.6353959589874 -160.05826994948703, 386.17807494885085 -162.47337479551788 M357.8359009133339 -163.566570055041 C363.13543454443834 -161.85623368890634, 371.4594643165988 -161.29901899496483, 387.1627598352617 -162.74922285822686" stroke="#364fc7" stroke-width="4" fill="none"></path></g></g><g><g transform="translate(1054.5723370219664 532.076558769272) rotate(0 198.95962833140334 85.63868919063339)"><path d="M-0.6344801295548677 -0.5903337430208921 C65.80610883897886 28.13427430752654, 331.962453676082 142.74060461390707, 398.5537367923615 172.15575183376603 M4.216563586592674 -3.379111585021019 C70.50937614772565 25.657201489768813, 331.88735061634816 145.54747486513054, 397.6185256042389 174.65648996628755" stroke="#364fc7" stroke-width="4" fill="none"></path></g><g transform="translate(1054.5723370219664 532.076558769272) rotate(0 198.95962833140334 85.63868919063339)"><path d="M366.8597515217705 175.83402982286415 C373.6087091550421 177.1511959825823, 387.83711235958236 173.7218424992181, 398.5261070937721 176.52257122270697 M366.2195624384774 173.26679018258355 C376.6902068362625 174.64432018810402, 381.0318359988187 173.7221019345575, 397.0783439171372 175.5462718790763" stroke="#364fc7" stroke-width="4" fill="none"></path></g><g transform="translate(1054.5723370219664 532.076558769272) rotate(0 198.95962833140334 85.63868919063339)"><path d="M375.3054697649871 157.13136034115547 C379.5221621064147 163.9610712009272, 391.24393556371183 166.08253842051045, 398.5261070937721 176.52257122270697 M374.665280681694 154.56412070087487 C383.0726788224695 160.40862413796864, 385.3855770768195 163.97894074656742, 397.0783439171372 175.5462718790763" stroke="#364fc7" stroke-width="4" fill="none"></path></g></g><g transform="translate(1199.4954139450433 407.03809723081054) rotate(337.0893255529088 47 9.5)"><text x="47" y="15" font-family="Cascadia, Segoe UI Emoji" font-size="16px" fill="#364fc7" text-anchor="middle" style="white-space: pre;" direction="ltr">Manipuluje</text></g><g transform="translate(1134.4954139450435 636.2304049231172) rotate(24.58273321372548 112.5 9.5)"><text x="112.5" y="15" font-family="Cascadia, Segoe UI Emoji" font-size="16px" fill="#364fc7" text-anchor="middle" style="white-space: pre;" direction="ltr">Vezme záznamy z databáze</text></g><g><g transform="translate(914.110798560428 640.307328000041) rotate(0 0.5760412114175892 76.60478562561343)"><path d="M-1.6177771676331758 0.2783411789685486 C-0.9734461375822624 25.40969789481884, 1.5100961020837222 127.52330265773962, 1.407049990817904 153.07933754029727 M2.699476727843285 -2.038870276808739 C3.3205535978078844 23.124258245917417, -0.1809754282236103 128.9827965258174, -0.0671318346261982 155.24844152803576" stroke="#364fc7" stroke-width="4" fill="none"></path></g><g transform="translate(914.110798560428 640.307328000041) rotate(0 0.5760412114175892 76.60478562561343)"><path d="M-9.469500413210625 128.90432413744884 C-11.166427200438857 129.82935038107544, -8.322465208369703 139.3649061927374, -1.0880121351778511 156.33545359919822 M-9.860877655492658 128.7334619414355 C-7.053909790334746 132.7421011629455, -5.1009626916078075 144.51027755657597, 0.8413820187002417 154.12065544861412" stroke="#364fc7" stroke-width="4" fill="none"></path></g><g transform="translate(914.110798560428 640.307328000041) rotate(0 0.5760412114175892 76.60478562561343)"><path d="M11.048985018726547 129.23862634387496 C4.9929574563164 129.85561765215823, 3.4832897610209717 139.32024093737832, -1.0880121351778511 156.33545359919822 M10.657607776444515 129.06776414786162 C7.744666694318416 133.13315089888061, 3.9731168719974885 144.8080595921375, 0.8413820187002417 154.12065544861412" stroke="#364fc7" stroke-width="4" fill="none"></path></g></g><g><g transform="translate(844.8800293296588 796.076558769272) rotate(0 -0.7786818195134515 -77.47318665634566)"><path d="M-2.7819330681115386 1.3088691879063843 C-2.809605847671628 -24.52489859818082, 0.6806536924093959 -130.37074191116596, 1.2245694290846583 -156.2552425005979 M0.9033504813909534 -0.4489127773046495 C0.487621473670006 -25.904870116175818, -0.02068657457828532 -128.84676967353425, -0.3486732727289201 -153.93370174385075" stroke="#364fc7" stroke-width="4" fill="none"></path></g><g transform="translate(844.8800293296588 796.076558769272) rotate(0 -0.7786818195134515 -77.47318665634566)"><path d="M12.022102528242288 -124.08218555783336 C3.290361244835875 -135.17860756977367, 2.842987558524258 -146.05120968009427, -1.7561010195314886 -155.8784676506317 M11.408999404860554 -127.18305431751017 C6.606152641825101 -129.82964243229105, 7.309991243701084 -137.4783286087953, 0.12769373334944234 -155.2219513352162" stroke="#364fc7" stroke-width="4" fill="none"></path></g><g transform="translate(844.8800293296588 796.076558769272) rotate(0 -0.7786818195134515 -77.47318665634566)"><path d="M-8.49835783954252 -123.90694663518114 C-10.053254598200509 -134.6568824261287, -3.3253516922299644 -145.5907593673852, -1.7561010195314886 -155.8784676506317 M-9.111460962924253 -127.00781539485796 C-9.704560588155791 -129.54981315969863, -4.79150678705358 -137.2344448424685, 0.12769373334944234 -155.2219513352162" stroke="#364fc7" stroke-width="4" fill="none"></path></g></g><g transform="translate(936.3415677911973 707.807328000041) rotate(0 122 9.5)"><text x="122" y="15" font-family="Cascadia, Segoe UI Emoji" font-size="16px" fill="#364fc7" text-anchor="middle" style="white-space: pre;" direction="ltr">Pošle data do Twig šablony</text></g><g transform="translate(639.3415677911973 713.4996356923482) rotate(0 94 9.5)"><text x="94" y="15" font-family="Cascadia, Segoe UI Emoji" font-size="16px" fill="#364fc7" text-anchor="middle" style="white-space: pre;" direction="ltr">Vrátí zpátky šablonu</text></g><g><g transform="translate(667.10097663656 581.3398141614582) rotate(0 -116.16279170681344 0.03773213526392283)"><path d="M1.9057592522352929 1.70486464984715 C-37.36104770284331 1.5850732931686862, -195.129699259571 -1.5859392075769996, -234.23134266586217 -1.6294003793189402 M-0.5042099386453627 0.16205164968967445 C-39.01601142042811 0.511461756869497, -189.90655843108573 1.9516592725333677, -228.95767326736066 1.4261346873303777" stroke="#5f3dc4" stroke-width="4" fill="none"></path></g><g transform="translate(667.10097663656 581.3398141614582) rotate(0 -116.16279170681344 0.03773213526392283)"><path d="M-198.32709239475872 -11.791966604995686 C-212.1768273005381 -5.650458357262144, -217.62367343637266 -2.0432508481839244, -228.16386083224032 -0.453809618536579 M-198.89403619111027 -10.73596029076274 C-206.32199294976482 -4.8947327715176705, -213.44944190840238 -2.562215267319342, -229.63999462769542 1.091749968420518" stroke="#5f3dc4" stroke-width="4" fill="none"></path></g><g transform="translate(667.10097663656 581.3398141614582) rotate(0 -116.16279170681344 0.03773213526392283)"><path d="M-198.33565994987433 8.729240206077556 C-212.04892209463216 7.710563586492443, -217.49277891897785 4.157702854662225, -228.16386083224032 -0.453809618536579 M-198.90260374622588 9.785246520310501 C-206.249717966614 10.902301614789494, -213.37519458592607 8.51062620114778, -229.63999462769542 1.091749968420518" stroke="#5f3dc4" stroke-width="4" fill="none"></path></g></g><g transform="translate(446.4954139450433 598.1919433846567) rotate(0 108 19)"><text x="108" y="15" font-family="Cascadia, Segoe UI Emoji" font-size="16px" fill="#364fc7" text-anchor="middle" style="white-space: pre;" direction="ltr">Vrátí vyrenderovanou</text><text x="108" y="34" font-family="Cascadia, Segoe UI Emoji" font-size="16px" fill="#364fc7" text-anchor="middle" style="white-space: pre;" direction="ltr"> Twig šablonu jako HTML</text></g><g transform="translate(754.8685948182248 854.176350869064) rotate(0 128.5 44)"><text x="128.5" y="35" font-family="Cascadia, Segoe UI Emoji" font-size="36.61622731941115px" fill="#5f3dc4" text-anchor="middle" style="white-space: pre;" direction="ltr">View layer</text><text x="128.5" y="79" font-family="Cascadia, Segoe UI Emoji" font-size="36.61622731941115px" fill="#5f3dc4" text-anchor="middle" style="white-space: pre;" direction="ltr">Twig šablony</text></g><g transform="translate(2181.7905510451683 577.2096323974363) rotate(0 73.91304347826076 35.86956521739148)"><path d="M67.64649342734744 0.8331089831665182 C79.39685069012388 -0.07058995415701952, 94.73733655188485 0.7288825992725978, 105.96857903179364 3.1878324978998407 C117.19982151170242 5.646782396527083, 128.10697388176223 10.5649731682619, 135.03394830680014 15.586808374929976 C141.96092273183805 20.608643581598052, 146.73499865682788 27.55316289763115, 147.53042558202117 33.3188437379083 C148.32585250721445 39.08452457818546, 144.98986357416348 44.57284730385172, 139.80650985795975 50.180893416592895 C134.62315614175603 55.78893952933407, 125.82525512524417 63.66172529207546, 116.43030328479884 66.96712041435536 C107.03535144435351 70.27251553663527, 95.11210044347736 69.92868421766528, 83.4367988152878 70.0132641502723 C71.76149718709824 70.09784408287933, 58.01682345233335 69.29591913285867, 46.378493515661475 67.47460000999757 C34.7401635789896 65.65328088713648, 21.10110763773297 63.78397862697736, 13.606819195256541 59.085349413105675 C6.112530752780114 54.38672019923399, 2.731928778771773 45.5061329441929, 1.4127628608029141 39.282824726767466 C0.09359694283405529 33.05951650934203, 1.150364709823207 26.70142767954819, 5.691823687443389 21.745500108553074 C10.23328266506357 16.78957253755796, 18.796029180381353 13.299790790001193, 28.661516726524006 9.547259300796771 C38.52700427266666 5.794727811592349, 56.757046837569234 0.701761459401359, 64.8847489642993 -0.769688826673459 C73.01245109102938 -2.241139112748277, 74.58695914967285 0.2731113078723328, 77.42772948690444 0.7185575843478631 C80.26849982413603 1.1640038608233934, 82.57449451233771 1.5179916441073484, 81.92937098768883 1.902988832179723 M124.86475435870892 10.924334345530685 C133.61148871774506 14.979217494288829, 139.44542274864537 21.398771141216088, 142.4487071842255 27.401214628285302 C145.45199161980563 33.40365811535452, 144.84970339555414 41.829220336205864, 142.8844609721897 46.93899526794598 C140.91921854882523 52.04877019968609, 138.22652469611756 54.602675451926686, 130.65725264403875 58.05986421872598 C123.08798059195993 61.51705298552527, 109.41392267104125 65.3999763995304, 97.46882865971682 67.6821278687417 C85.52373464839239 69.964279337953, 71.62627109175128 72.29249172425091, 58.98668857609219 71.75277303399379 C46.347106060433106 71.21305434373667, 30.467241006407264 68.11282147301719, 21.631333565762304 64.44381572719895 C12.795426125117343 60.77480998138071, 9.34350690788934 55.24694052165629, 5.971243932222421 49.73873855908434 C2.598980956555503 44.23053659651239, -1.053521567540939 37.77964708852024, 1.3977557117607944 31.394603951767223 C3.849032991062528 25.009560815014204, 12.451570833251903 16.094072900574915, 20.678907608032823 11.428479738566232 C28.906244382813743 6.762886576557548, 39.897134023663384 5.168589514921078, 50.76177636044631 3.401044979715124 C61.62641869722924 1.6335004445091694, 73.89707867229063 -0.10652624995400295, 85.86676162873039 0.8232125273305044 C97.83644458517014 1.7529513046150118, 116.41168269496787 7.879867343693287, 122.5798740990848 8.979477643422168 C128.74806550320176 10.079087943151048, 122.89514857578338 7.078675545572933, 122.87591005343205 7.420874325703789 C122.85667153108072 7.7630731058346445, 123.24229446309907 10.085983832100535, 122.46444296497685 11.032670324207302" stroke="#364fc7" stroke-width="4" fill="none"></path></g><g transform="translate(2186.1383771321234 678.2965889191748) rotate(0 73.91304347826076 35.86956521739148)"><path d="M120.68274480354341 7.6108060866231 C130.31258081420984 10.719160405913547, 136.69534752484557 16.39423049489342, 141.32916692441557 22.154962765021956 C145.96298632398558 27.91569503515049, 150.32475781724804 35.90830455880017, 148.48566120096342 42.175199707394306 C146.6465645846788 48.442094855988444, 137.89179988627174 55.21426867894532, 130.2945872267079 59.75633365658676 C122.69737456714407 64.2983986342282, 113.82772160573259 67.55427992956231, 102.90238524358037 69.42758957324295 C91.97704888142815 71.3008992169236, 77.26191250672146 71.57004819431637, 64.74256905379454 70.99619151867057 C52.223225600867615 70.42233484302477, 37.5268855635403 69.2380515659239, 27.786324526018838 65.98444951936817 C18.04576348849738 62.730847472812435, 10.968359161650216 57.25195938750848, 6.29920282866577 51.47457923933618 C1.6300464956813236 45.69719909116388, -1.6193590259228898 37.75782965219661, -0.2286134718878401 31.320168630334397 C1.1621320821472096 24.88250760847218, 7.064985018594627 17.85001118183941, 14.643676152876068 12.848613108162876 C22.22236728715751 7.847215034486342, 34.01256327089781 3.3852294950914352, 45.243533333800805 1.3117801882751934 C56.4745033967038 -0.7616691185410485, 70.4199872687007 -0.5699877472313327, 82.02949653029405 0.4079172672654252 C93.63900579188741 1.385822281762183, 104.8953364049954 3.077281614499065, 114.90058890336095 7.179210275255741 C124.9058414017265 11.281138936012418, 137.22279120217428 19.105909375602312, 142.06101152048734 25.01948923180548 C146.8992318388004 30.933069088008647, 144.7288372128496 42.34666762584176, 143.9299108132394 42.66068941247474 M14.654771760162959 15.177691357093881 C19.970783044858504 9.80976875577398, 26.867902335460542 4.099565849815592, 37.364412890565305 1.817901982505436 C47.86092344567007 -0.46376188480472, 64.49687444852981 0.6604627623578571, 77.63383509079152 1.4877081532329441 C90.77079573305323 2.314953544108031, 106.10794943736241 3.559541279202813, 116.18617674413557 6.781374327755959 C126.26440405090872 10.003207376309105, 132.99816978535299 15.518023969131688, 138.10319893143043 20.818706444551818 C143.20822807750787 26.119388919971946, 146.76717758842233 32.75274276824095, 146.8163516206002 38.58546918027674 C146.86552565277805 44.41819559231253, 144.91849982714834 50.71713434902949, 138.39824312449758 55.81506491676656 C131.87798642184683 60.912995484503625, 118.40430863259807 66.23773099392159, 107.69481140469566 69.17305258669913 C96.98531417679324 72.10837417947667, 85.84896676034869 73.74117810239399, 74.14125975708306 73.42699447343176 C62.433552753817445 73.11281084446954, 48.53171882525219 70.24316739622178, 37.44856938510194 67.28795081292579 C26.36541994495169 64.33273422962979, 13.532952111129514 60.83285332296315, 7.642363116181542 55.69569497365579 C1.75177412123357 50.55853662434843, 1.6668941314983456 42.518080484803754, 2.1050354154141075 36.46500071708161 C2.5431766993298695 30.41192094935946, 8.68483427286702 22.66332646738694, 10.271210819676114 19.377216367322905 C11.857587366485207 16.09110626725887, 11.454739351921285 16.85606776729729, 11.623294696268673 16.748340116697385 C11.79185004061606 16.64061246609748, 10.231173448547098 18.39911724617158, 11.282542885760435 18.730850463723478" stroke="#364fc7" stroke-width="4" fill="none"></path></g><g><g transform="translate(2183.9644640886463 614.1661541365668) rotate(0 -0.1159199957146484 51.88313276298504)"><path d="M1.0509049903601406 -2.16521032564342 C1.2459413579354681 15.293259917485754, 1.7674386909852424 85.12290762110572, 1.5323708664625881 103.02192110255683 M-1.8231279426813125 2.831078830361366 C-1.8952485519647597 20.80845245690449, 0.2160674232244491 89.70710820651571, 0.12622037351131432 105.93147585161353" stroke="#364fc7" stroke-width="4" fill="none"></path></g></g><g><g transform="translate(2329.6166380016894 616.3400671800453) rotate(0 0.0503848960383948 55.85326456813527)"><path d="M0.47625607363879663 1.3569306183606384 C1.386804144705335 20.367796607472066, 3.0161532691369457 93.52575885731758, 2.7978788863867523 112.08128999230303 M-2.7097291284799576 -0.3747608560323714 C-1.677917395234108 17.967675523939292, 2.1426556295156476 89.64119669766507, 2.0787184613943097 107.72841518212891" stroke="#364fc7" stroke-width="4" fill="none"></path></g></g><g transform="translate(2167.9427249582104 773.6226758756973) rotate(0 82 12)"><text x="82" y="19" font-family="Cascadia, Segoe UI Emoji" font-size="20px" fill="#364fc7" text-anchor="middle" style="white-space: pre;" direction="ltr">MySQL Databáze</text></g><g><g transform="translate(1939.9644640886456 676.7748497887408) rotate(0 122.2613610826595 0.7298910839483597)"><path d="M-1.733136935159564 -1.8529970873147248 C39.24943259160268 -1.4277765461554128, 205.72207332107163 2.3925857873012624, 246.25585910047874 2.2442044150084257 M2.521493086516857 3.3127792552113533 C43.34972384416111 3.0112757018208502, 204.74400474484005 -0.8089908215403555, 245.5256891768007 -1.5481814476847648" stroke="#364fc7" stroke-width="4" fill="none"></path></g><g transform="translate(1939.9644640886456 676.7748497887408) rotate(0 122.2613610826595 0.7298910839483597)"><path d="M214.90959553781403 13.27050998471525 C229.53727255496742 3.3843198761678916, 231.16301599972525 5.8222167520192425, 243.98345286730216 1.1629227478802204 M218.12969796906663 10.834968978910116 C229.556210662529 4.934969081800057, 237.3364916817271 1.9316160947037773, 245.0260629780172 -3.004422926828265" stroke="#364fc7" stroke-width="4" fill="none"></path></g><g transform="translate(1939.9644640886456 676.7748497887408) rotate(0 122.2613610826595 0.7298910839483597)"><path d="M214.47839633306796 -7.246167856291709 C229.19597634918264 -10.707906876284989, 230.9566303510016 -1.8508969637949653, 243.98345286730216 1.1629227478802204 M217.69849876432056 -9.681708862096844 C229.65718565193094 -7.530973878816393, 237.60682688676627 -2.476081523464255, 245.0260629780172 -3.004422926828265" stroke="#364fc7" stroke-width="4" fill="none"></path></g></g><g transform="translate(1979.4862032190806 623.7965889191757) rotate(0 79.90760869565133 16.391304347826008)"><text x="79.90760869565126" y="13.391304347825908" font-family="Cascadia, Segoe UI Emoji" font-size="13.659420289854918px" fill="#364fc7" text-anchor="middle" style="white-space: pre;" direction="ltr">Posílá SQL dotazy </text><text x="79.90760869565126" y="29.782608695651817" font-family="Cascadia, Segoe UI Emoji" font-size="13.659420289854918px" fill="#364fc7" text-anchor="middle" style="white-space: pre;" direction="ltr">vytvořené pomocí ORM</text></g><g><g transform="translate(1691.6166380016891 477.94876283221924) rotate(0 0.26189452929770596 46.47430603679118)"><path d="M-1.9467917751520871 0.014221633598208605 C-1.9514566293607154 15.712406447740356, -2.9055286160359777 77.07165358817558, -2.307524580880999 93.1331302063135 M2.1918541905283933 -2.44636900395155 C3.2516231247782716 13.601885157413243, 3.0863464352488523 78.33892082486032, 2.8418102547526365 95.39498107753371" stroke="#364fc7" stroke-width="4" fill="none"></path></g><g transform="translate(1691.6166380016891 477.94876283221924) rotate(0 0.26189452929770596 46.47430603679118)"><path d="M-7.213699930124302 63.8411694221175 C-8.8433322263929 75.79907957837648, -1.9980898636984223 81.96335626639126, 3.3445660345256334 91.9192264998672 M-8.712074211575409 67.81622949577633 C-4.357604478194879 73.61295947923558, -0.46383283036743617 82.65059753839648, 2.3873979341238742 96.45785200655138" stroke="#364fc7" stroke-width="4" fill="none"></path></g><g transform="translate(1691.6166380016891 477.94876283221924) rotate(0 0.26189452929770596 46.47430603679118)"><path d="M13.307068897629616 63.975516374902014 C7.192855725290897 75.6187051541647, 9.552503872503348 81.75361520785229, 3.3445660345256334 91.9192264998672 M11.80869461617851 67.95057644856084 C11.110147609580773 73.30958928855445, 9.950279029901267 82.31414178592505, 2.3873979341238742 96.45785200655138" stroke="#364fc7" stroke-width="4" fill="none"></path></g></g></svg>