<svg version="1.1" xmlns="http://www.w3.org/2000/svg" viewBox="0 0 1920.9095149253728 868.3054554812146" width="1920.9095149253728" height="868.3054554812146">
  <!-- svg-source:excalidraw -->
  
  <defs>
    <style>
      @font-face {
        font-family: "Virgil";
        src: url("https://excalidraw.com/FG_Virgil.woff2");
      }
      @font-face {
        font-family: "Cascadia";
        src: url("https://excalidraw.com/Cascadia.woff2");
      }
    </style>
  </defs>
  <rect x="0" y="0" width="1920.9095149253728" height="868.3054554812146" fill="#ffffff"></rect><g transform="translate(10 70.2457539886774) rotate(0 950.4547574626864 394.0298507462686)"><path d="M0.9549889639019966 -0.9277234867215157 C631.7492298366507 13.477280397599719, 1266.922677557544 14.521263332551502, 1902.1531307985308 -1.418186791241169 M-0.1635792411863804 -0.13355130776762963 C606.3012872993288 -6.214584512414181, 1213.5929444587405 -7.332163519562923, 1900.3332762059988 0.3807771004736424 M1900.8966408540728 -0.6442957237362862 C1903.9701197081313 205.660805005747, 1903.8528221064314 413.60845181677325, 1901.6179414083483 789.3144612020742 M1900.6386238393607 0.6163871087133885 C1906.3868209353243 183.31291243770895, 1906.278673242644 364.64696599546426, 1900.8404747066322 788.2193026601267 M1901.884583788109 786.8087746328604 C1305.493274571276 781.0165702346678, 710.6054886088376 781.2422212604399, 1.1482325151562691 787.1914406008017 M1900.2222444591346 788.8270257054758 C1499.0282630244785 801.957652751785, 1098.0200077555942 801.5698207539135, 0.44879289492964747 787.741532641549 M1.5829290941357614 788.0300045198691 C1.2211258683409263 543.7651833994397, 1.0692793164457848 301.72952945430325, 0.7224577978253365 0.16035882681608202 M0.31264882907271385 788.7313296615075 C1.1943998274629686 558.3024384204018, 1.6075549301927659 327.159171111181, -0.2575294174253941 0.7974914588034153" stroke="#364fc7" stroke-width="4" fill="none"></path></g><g transform="translate(17.680230313947476 10) rotate(0 285 21.5)"><text x="285" y="35" font-family="Cascadia, Segoe UI Emoji" font-size="36px" fill="#364fc7" text-anchor="middle" style="white-space: pre;" direction="ltr">DATABASE - MySQL - susicpav</text></g><g transform="translate(727.8796641791046 157.14127637673698) rotate(0 205.22388059701495 168.6567164179105)"><path d="M-2.056883951696251 -1.33179424022161 C107.28104620497923 3.0497138210713515, 215.93457808767965 2.8433383256685705, 410.3079411078898 -0.6898129355054254 M0.9857591504940735 0.92040245466074 C144.6437033509071 1.8047143988139087, 287.9908843467704 2.2705775877123955, 409.5855793583204 -0.028274520182322255 M408.20573248946465 -0.702011919534242 C414.9464304247019 82.60669564396895, 412.30852772911464 162.1571087163629, 412.06683055620186 337.79249053622965 M409.7603299944113 -1.1245127313455898 C406.9755463260917 114.92853337364349, 407.90306642536996 232.77223115012058, 411.06941133557 336.08114992499657 M411.1554112518254 336.06979656186155 C282.7594013748729 336.2717190220709, 157.3333968007512 336.1403246677511, 0.38874235676293384 337.24135548269055 M409.93358490503385 336.94134754371515 C278.3821738890274 336.87406373788525, 146.25994772434302 337.4141601419833, -0.4760765556059789 337.3330773587106 M-1.0826224103632696 337.9439376531042 C-3.0131295234345714 261.1475630491147, -0.31266113155363673 183.0297274149607, -2.131098431734659 1.3198259750599035 M-0.3377093752815101 338.1046534877121 C0.475083926584529 263.71388834773774, 2.08936890048187 190.8954543933569, -0.8088078488148965 -0.05180674090077165" stroke="#364fc7" stroke-width="4" fill="none"></path></g><g><g transform="translate(729.3722014925374 209.3800823468863) rotate(0 205.03919702200255 0.7996163324519898)"><path d="M1.5184414912015196 -1.710778211429715 C70.06648406049246 -2.349906018252174, 343.02600577029756 -1.4187455484022697, 411.1801799568167 -1.545244799926877 M-1.1017859128117564 3.532202663719654 C67.28430659992628 3.028561659157276, 341.7257315424648 1.950669403374195, 410.1500042920193 1.2452397635579109" stroke="#364fc7" stroke-width="4" fill="none"></path></g></g><g transform="translate(829.7378731343284 165.0144107050952) rotate(0 98.5 17)"><text x="98.5" y="27" font-family="Cascadia, Segoe UI Emoji" font-size="28px" fill="#364fc7" text-anchor="middle" style="white-space: pre;" direction="ltr">world_upload</text></g><g><g transform="translate(726.3871268656717 258.63381369016986) rotate(0 205.7979863838235 -0.3923187037929665)"><path d="M2.6731672536581756 1.2565013337880373 C71.40562402880869 1.4526190011451643, 342.2635443760296 1.6261972118169072, 410.9161817898113 1.6619222451001407 M0.6797909778356557 -0.529708895087242 C69.08033008480251 -1.1846854537725449, 339.19897163153587 -1.9914189094305037, 408.1222237511981 -2.446559652686119" stroke="#364fc7" stroke-width="1" fill="none"></path></g></g><g><g transform="translate(727.8796641791045 303.4099330931549) rotate(0 206.7880502951274 0.9439897305890668)"><path d="M2.2474083591252567 1.4489033352583647 C71.50637724053543 1.3109022628515958, 345.14624449321036 -0.08977968978385154, 413.55319476398415 -0.684801458194852 M0.022905826270580576 -0.2328600928187372 C69.23577789718092 0.03666586428880675, 343.64656609804337 2.5610738709568976, 412.1907580542076 2.5727809193730353" stroke="#364fc7" stroke-width="1" fill="none"></path></g></g><g><g transform="translate(735.3423507462686 351.1711271230057) rotate(0 203.8883164671937 -0.37357034146782553)"><path d="M0.07316231839358789 -1.981728823110461 C68.39901076631426 -2.1095081996172667, 342.0898450844825 0.18769493984679386, 411.1082781423885 0.7449574995785953 M-3.331645208001137 3.1141645771265036 C64.44155533695401 1.9594611507654196, 338.9309784388632 -2.770822414755821, 408.41860098088864 -3.8613052600622177" stroke="#364fc7" stroke-width="1" fill="none"></path></g></g><g><g transform="translate(735.3423507462686 395.94724652599086) rotate(0 204.77880086307766 -0.5600520035251861)"><path d="M-2.7025656808167695 2.0520212937146427 C65.82659049110293 1.7913870740681888, 343.34453420970243 1.2864584335436422, 412.2601674069721 1.1916482139378783 M1.0258030217885974 0.6976647573709487 C69.11267834091367 0.7779852873086928, 342.306784517774 -2.5155873101949697, 410.1958015605319 -3.172125300765038" stroke="#364fc7" stroke-width="1" fill="none"></path></g></g><g transform="translate(744.7304104477612 224.23829130211027) rotate(0 152.5 12)"><text x="152.5" y="19" font-family="Cascadia, Segoe UI Emoji" font-size="20px" fill="#364fc7" text-anchor="middle" style="white-space: pre;" direction="ltr">ID - Int4 - Auto Increment</text></g><g transform="translate(558.8199626865686 225.74575398867728) rotate(0 76 12)"><text x="76" y="19" font-family="Cascadia, Segoe UI Emoji" font-size="20px" fill="#e67700" text-anchor="middle" style="white-space: pre;" direction="ltr">Primární klíč</text></g><g transform="translate(746.2901119402985 266.0367987647967) rotate(0 99.5 12)"><text x="99.5" y="19" font-family="Cascadia, Segoe UI Emoji" font-size="20px" fill="#364fc7" text-anchor="middle" style="white-space: pre;" direction="ltr">world_data - JSON</text></g><g transform="translate(748.1632462686568 315.29053010808036) rotate(0 123 12)"><text x="123" y="19" font-family="Cascadia, Segoe UI Emoji" font-size="20px" fill="#364fc7" text-anchor="middle" style="white-space: pre;" direction="ltr">createdAt - Timestamp</text></g><g transform="translate(744.8274253731344 363.05172413793105) rotate(0 93.5 12)"><text x="93.5" y="19" font-family="Cascadia, Segoe UI Emoji" font-size="20px" fill="#364fc7" text-anchor="middle" style="white-space: pre;" direction="ltr">author_id - Int4</text></g><g transform="translate(601.7527985074643 364.0367987647968) rotate(0 52.5 12)"><text x="52.5" y="19" font-family="Cascadia, Segoe UI Emoji" font-size="20px" fill="#e67700" text-anchor="middle" style="white-space: pre;" direction="ltr">Cizí Klíč</text></g><g><g transform="translate(726.3871268656716 442.2159032424087) rotate(0 205.72373355408553 0.0051889629289689765)"><path d="M-2.0622738908976315 -2.4229875195771453 C66.83826578112127 -2.1640217849363883, 344.45138107049866 1.22460926088194, 413.50974099906864 1.7585123073309656 M2.013681783378124 2.4333654454350473 C70.6735487883705 1.8753544762730598, 344.01449110300246 -2.6110117480158808, 412.12371510262375 -2.2975349852442744" stroke="#364fc7" stroke-width="1" fill="none"></path></g></g><g transform="translate(745.9393656716418 409.3203808543491) rotate(0 170 12)"><text x="170" y="19" font-family="Cascadia, Segoe UI Emoji" font-size="20px" fill="#364fc7" text-anchor="middle" style="white-space: pre;" direction="ltr">save_game_info - varchar(255)</text></g><g transform="translate(747.0214552238806 455.58903757076666) rotate(0 152.5 12)"><text x="152.5" y="19" font-family="Cascadia, Segoe UI Emoji" font-size="20px" fill="#364fc7" text-anchor="middle" style="white-space: pre;" direction="ltr">world_state - varchar(255)</text></g><g transform="translate(148.35727611940308 270.02933607822945) rotate(0 281 12)"><text x="281" y="19" font-family="Cascadia, Segoe UI Emoji" font-size="20px" fill="#2b8a3e" text-anchor="middle" style="white-space: pre;" direction="ltr">Data získaná z SaveGameInfo a WorldState souborů</text></g><g transform="translate(392.7154850746269 316.6188883170355) rotate(0 158.00000000000003 12)"><text x="158" y="19" font-family="Cascadia, Segoe UI Emoji" font-size="20px" fill="#2b8a3e" text-anchor="middle" style="white-space: pre;" direction="ltr">Timestamp vytvoření záznamu</text></g><g transform="translate(251.55876865671655 407.66366443643847) rotate(0 228.5 11.999999999999943)"><text x="228.5" y="19" font-family="Cascadia, Segoe UI Emoji" font-size="20px" fill="#2b8a3e" text-anchor="middle" style="white-space: pre;" direction="ltr">Cesta k SaveGameInfo souboru na serveru</text></g><g transform="translate(272.52145522388054 458.4099330931548) rotate(0 217.00000000000003 12)"><text x="217" y="19" font-family="Cascadia, Segoe UI Emoji" font-size="20px" fill="#2b8a3e" text-anchor="middle" style="white-space: pre;" direction="ltr">Cesta k WorldState souboru na serveru</text></g><g transform="translate(136.5695657351539 491.24575398867717) rotate(0 286 9.5)"><text x="286" y="15" font-family="Cascadia, Segoe UI Emoji" font-size="16px" fill="#5c940d" text-anchor="middle" style="white-space: pre;" direction="ltr">Pozn.: název WorldState souboru je ve formátu &lt;jménohráče_id&gt;</text></g><g transform="translate(731.0587686567167 570.4099330931548) rotate(0 205.22388059701495 120.89552238805982)"><path d="M0.3332060324482348 -0.7715907360266552 C134.79416017015535 -3.5080260757360042, 269.28737149225066 -5.095112950279319, 409.1707132429452 2.18309563842307 M0.01798538968437014 0.43726426020161063 C119.30106420605212 -2.5251759686343624, 238.9600532949527 -2.9108419142981012, 410.67954022198353 -0.09025233693601649 M411.67656993868604 -1.9971750620662636 C405.9855750273622 63.28637977918197, 410.66455970312796 128.65227136003637, 412.8560822373329 242.87747315997078 M411.99245923056964 -1.6407986681324591 C408.88014158204896 73.18075389258212, 409.13982405105156 147.7191228651891, 411.0016610781911 242.89504565911744 M412.5195189783336 240.5476436161381 C250.9137400888415 242.13405579731722, 90.43338853092895 241.96438693823606, 0.06631820025428738 240.10440423590154 M410.86132755576523 242.7432272658377 C250.48403057079065 243.26175794155256, 92.19614415223232 244.6380775803026, 0.7793314164063402 240.72033866389572 M0.4797283217971746 242.8851112624727 C-5.350263889338789 170.39423010497316, -2.4731599252723178 95.83671420409674, 1.6960648918293542 1.5230979724122389 M-1.2756948946233169 242.3295289811171 C-1.8076369185538184 154.043580293983, -1.3992351983595626 69.90425646434895, 0.6998055872867737 -0.2885723786363744" stroke="#364fc7" stroke-width="4" fill="none"></path></g><g><g transform="translate(734.7901119402986 625.6338136901703) rotate(0 203.4256980624611 -1.012503567378758)"><path d="M1.1799447584897278 -0.48656294234096986 C68.88096126576895 -0.45406345017254335, 340.4665770307499 1.46323440981408, 408.4754341396323 1.6694138895720245 M-1.6240380147099498 -3.2190080639719962 C65.45521428806717 -4.126424092948437, 337.7768986300198 -3.6828472325205803, 405.9769678883633 -2.4350011155009272" stroke="#364fc7" stroke-width="4" fill="none"></path></g></g><g transform="translate(904.7751865671642 578.7830674215132) rotate(0 33 17)"><text x="33" y="27" font-family="Cascadia, Segoe UI Emoji" font-size="28px" fill="#364fc7" text-anchor="middle" style="white-space: pre;" direction="ltr">user</text></g><g><g transform="translate(736.2826492537313 665.9323211528566) rotate(0 205.09770449200067 0.6527702957406518)"><path d="M1.5999607812613243 2.1068722654134033 C70.46471074895742 2.3610206334541237, 343.1854988329947 3.0231227088719606, 411.17142227786366 2.375521020963788 M-0.9760132938623429 0.7822919708490375 C67.62863531017483 0.21684849321842214, 339.1814156508535 -1.2761624282598498, 408.516023361336 -1.3455786842107775" stroke="#364fc7" stroke-width="1" fill="none"></path></g></g><g transform="translate(749.454291044776 633.0367987647973) rotate(0 152.5 12)"><text x="152.5" y="19" font-family="Cascadia, Segoe UI Emoji" font-size="20px" fill="#364fc7" text-anchor="middle" style="white-space: pre;" direction="ltr">ID - Int4 - Auto Increment</text></g><g><g transform="translate(731.8050373134326 709.2159032424091) rotate(0 206.48531727352537 0.6490615728870353)"><path d="M1.355278278514743 1.437782185152173 C70.49185645259104 2.311280732229352, 346.2190756075919 2.4076092887669795, 414.3241579880077 2.480985384061932 M-1.3535234409570696 -0.2500184386968609 C67.67051725292386 0.1401069313287739, 343.86179124594634 -0.785811704993248, 413.3802441712726 -1.182862238287926" stroke="#364fc7" stroke-width="1" fill="none"></path></g></g><g transform="translate(748.0513059701493 676.3203808543493) rotate(0 134.5 12)"><text x="134.5" y="19" font-family="Cascadia, Segoe UI Emoji" font-size="20px" fill="#364fc7" text-anchor="middle" style="white-space: pre;" direction="ltr">username - varchar(180)</text></g><g><g transform="translate(725.8348880597016 753.2756047349461) rotate(0 205.8164292671288 -0.21747329719357822)"><path d="M-1.5085903238505125 1.2364774119108919 C67.31169116945745 0.68623192422092, 344.58466872283225 -1.1137916116664806, 413.141448858108 -1.6714240062981842 M2.8679364296793937 -0.5606029459834101 C71.40397653037489 -0.9271112295985224, 342.78013490946 0.9811697629094125, 411.5554929422844 1.050563273727894" stroke="#364fc7" stroke-width="1" fill="none"></path></g></g><g transform="translate(749.3647388059703 721.8726196603196) rotate(0 70.5 12)"><text x="70.5" y="19" font-family="Cascadia, Segoe UI Emoji" font-size="20px" fill="#364fc7" text-anchor="middle" style="white-space: pre;" direction="ltr">roles - JSON</text></g><g transform="translate(749.5438432835824 768.8576942871849) rotate(0 134.5 12)"><text x="134.5" y="19" font-family="Cascadia, Segoe UI Emoji" font-size="20px" fill="#364fc7" text-anchor="middle" style="white-space: pre;" direction="ltr">password - varchar(255)</text></g><g transform="translate(561.7751865671643 634.5293360782297) rotate(0 76 12)"><text x="76" y="19" font-family="Cascadia, Segoe UI Emoji" font-size="20px" fill="#e67700" text-anchor="middle" style="white-space: pre;" direction="ltr">Primární klíč</text></g><g transform="translate(409.1557835820896 673.3353062274833) rotate(0 152.5 12)"><text x="152.5" y="19" font-family="Cascadia, Segoe UI Emoji" font-size="20px" fill="#2b8a3e" text-anchor="middle" style="white-space: pre;" direction="ltr">Jméno uživatele (unikátní)</text></g><g transform="translate(254.05130597014931 771.8427689140507) rotate(0 228.5 12)"><text x="228.5" y="19" font-family="Cascadia, Segoe UI Emoji" font-size="20px" fill="#2b8a3e" text-anchor="middle" style="white-space: pre;" direction="ltr">Uživatelské heslo (hashované a osolené)</text></g><g transform="translate(30.611007462686644 718.1114256304687) rotate(0 340 12)"><text x="340" y="19" font-family="Cascadia, Segoe UI Emoji" font-size="20px" fill="#2b8a3e" text-anchor="middle" style="white-space: pre;" direction="ltr">Role hráče, pro adminovská práva přidat do pole ROLE_ADMIN</text></g><g><g transform="translate(1140.0190161844046 370.48453597829473) rotate(0 62.62570158737242 1.4155569250509643)"><path d="M-1.2071320723742245 -1.472265576198697 C19.885977664498288 -1.4060367851207651, 105.4302004685392 0.17075127872327947, 126.45853524711906 0.15163499228656274 M3.33304344624281 3.900193586647511 C24.23122120314121 4.484817047417164, 105.23068286206723 4.403035936653615, 125.23478499640703 3.863282871544362" stroke="#000000" stroke-width="1" fill="none"></path></g></g><g><g transform="translate(1264.6091801188306 373.7632245028849) rotate(0 3.235993261565909 136.40989029976976)"><path d="M2.0111365806311365 -2.026116354390979 C3.5803343048833085 43.43866160857016, 5.945679619979001 226.4414222715961, 6.813614297966524 272.3043606603792 M-0.3416277748346328 3.045680957436562 C1.210924447168139 48.85541983961894, 4.185187118595974 229.4145546781934, 5.301653525169058 274.8458969539305" stroke="#000000" stroke-width="1" fill="none"></path></g></g><g><g transform="translate(1140.0190161844046 650.8124048307537) rotate(0 67.4869573032172 -0.13147932209813007)"><path d="M1.6614385735243555 1.7013825941830873 C23.085988138618127 2.177155082300305, 109.01450094382989 1.860305512820681, 130.62608905771108 1.807199852541089 M-0.8811618429422379 0.1566793352365492 C21.226772101697378 -0.06682978570461287, 114.25270585922924 -1.630223245024681, 135.85507644937667 -2.2224170583486558" stroke="#000000" stroke-width="1" fill="none"></path></g></g><g transform="translate(1153.939388707037 628.4365222413584) rotate(0 4.5 9.5)"><text x="4.5" y="15" font-family="Cascadia, Segoe UI Emoji" font-size="16px" fill="#000000" text-anchor="middle" style="white-space: pre;" direction="ltr">M</text></g><g transform="translate(1156.7965315641802 342.72223652707316) rotate(0 4.5 9.5)"><text x="4.5" y="15" font-family="Cascadia, Segoe UI Emoji" font-size="16px" fill="#000000" text-anchor="middle" style="white-space: pre;" direction="ltr">1</text></g><g transform="translate(1284.6536744213229 488.43652224135906) rotate(0 239.5 19)"><text x="0" y="15" font-family="Cascadia, Segoe UI Emoji" font-size="16px" fill="#000000" text-anchor="start" style="white-space: pre;" direction="ltr">Relace 1:M, jeden upload může mít jediného autora. </text><text x="0" y="34" font-family="Cascadia, Segoe UI Emoji" font-size="16px" fill="#000000" text-anchor="start" style="white-space: pre;" direction="ltr">Autor může mít několik (nekonečno) uploadů</text></g></svg>